<svg width="371" height="106" viewBox="0 0 371 106" fill="none" xmlns="http://www.w3.org/2000/svg">
<mask id="path-1-inside-1_403_596" fill="white">
<path d="M371.009 53C371.009 82.2711 345.999 106 315.147 106C297.731 106 282.178 98.438 271.933 86.5869C261.688 98.4381 246.135 106 228.719 106C211.304 106 195.75 98.4379 185.505 86.5869C175.261 98.4383 159.706 106 142.291 106C124.875 106 109.321 98.4374 99.0767 86.5859C88.8319 98.4374 73.2786 106 55.8628 106C25.0109 106 0.000486418 82.2711 0.000485965 53C0.000494818 23.7289 25.0109 -1.41286e-05 55.8628 -1.37755e-05C73.2784 0.000102359 88.8319 7.56192 99.0767 19.4131C109.321 7.56194 124.875 2.40359e-05 142.291 -9.99761e-06C159.706 -9.79826e-06 175.261 7.56105 185.505 19.4121C195.75 7.56143 211.304 -6.41904e-06 228.719 -6.21969e-06C246.135 0.000131995 261.688 7.56127 271.933 19.4121C282.178 7.56129 297.732 7.29727e-06 315.147 -2.44182e-06C345.999 -2.08866e-06 371.009 23.7289 371.009 53Z"/>
</mask>
<path d="M371.009 53C371.009 82.2711 345.999 106 315.147 106C297.731 106 282.178 98.438 271.933 86.5869C261.688 98.4381 246.135 106 228.719 106C211.304 106 195.75 98.4379 185.505 86.5869C175.261 98.4383 159.706 106 142.291 106C124.875 106 109.321 98.4374 99.0767 86.5859C88.8319 98.4374 73.2786 106 55.8628 106C25.0109 106 0.000486418 82.2711 0.000485965 53C0.000494818 23.7289 25.0109 -1.41286e-05 55.8628 -1.37755e-05C73.2784 0.000102359 88.8319 7.56192 99.0767 19.4131C109.321 7.56194 124.875 2.40359e-05 142.291 -9.99761e-06C159.706 -9.79826e-06 175.261 7.56105 185.505 19.4121C195.75 7.56143 211.304 -6.41904e-06 228.719 -6.21969e-06C246.135 0.000131995 261.688 7.56127 271.933 19.4121C282.178 7.56129 297.732 7.29727e-06 315.147 -2.44182e-06C345.999 -2.08866e-06 371.009 23.7289 371.009 53Z" fill="white"/>
<path d="M371.009 53L372.509 53V53L371.009 53ZM315.147 106L315.147 107.5L315.147 107.5L315.147 106ZM271.933 86.5869L273.068 85.6059L271.933 84.2932L270.798 85.606L271.933 86.5869ZM228.719 106L228.719 107.5L228.719 107.5L228.719 106ZM185.505 86.5869L186.64 85.6059L185.505 84.2932L184.371 85.606L185.505 86.5869ZM142.291 106L142.291 107.5L142.291 107.5L142.291 106ZM99.0767 86.5859L100.211 85.605L99.0767 84.2922L97.9419 85.605L99.0767 86.5859ZM55.8628 106L55.8628 107.5L55.8628 107.5L55.8628 106ZM0.000485965 53L-1.49951 53V53L0.000485965 53ZM55.8628 -1.37755e-05L55.8628 -1.50001L55.8628 -1.50001L55.8628 -1.37755e-05ZM99.0767 19.4131L97.9419 20.394L99.0767 21.7067L100.211 20.394L99.0767 19.4131ZM142.291 -9.99761e-06L142.291 -1.50001L142.291 -1.50001L142.291 -9.99761e-06ZM185.505 19.4121L184.371 20.3931L185.505 21.7057L186.64 20.3931L185.505 19.4121ZM228.719 -6.21969e-06L228.719 -1.50001L228.719 -1.50001L228.719 -6.21969e-06ZM271.933 19.4121L270.798 20.3931L271.933 21.7057L273.068 20.3931L271.933 19.4121ZM315.147 -2.44182e-06L315.147 -1.5L315.147 -1.5L315.147 -2.44182e-06ZM371.009 53L369.509 53C369.509 81.3693 345.246 104.5 315.147 104.5L315.147 106L315.147 107.5C346.752 107.5 372.509 83.1729 372.509 53L371.009 53ZM315.147 106L315.147 104.5C298.17 104.5 283.03 97.1297 273.068 85.6059L271.933 86.5869L270.798 87.5679C281.326 99.7464 297.293 107.5 315.147 107.5L315.147 106ZM271.933 86.5869L270.798 85.606C260.837 97.1297 245.696 104.5 228.719 104.5L228.719 106L228.719 107.5C246.573 107.5 262.54 99.7464 273.068 87.5679L271.933 86.5869ZM228.719 106L228.719 104.5C211.742 104.5 196.602 97.1296 186.64 85.6059L185.505 86.5869L184.371 87.5679C194.898 99.7462 210.865 107.5 228.719 107.5L228.719 106ZM185.505 86.5869L184.371 85.606C174.409 97.1299 159.268 104.5 142.291 104.5L142.291 106L142.291 107.5C160.145 107.5 176.112 99.7466 186.64 87.5679L185.505 86.5869ZM142.291 106L142.291 104.5C125.313 104.5 110.173 97.1291 100.211 85.605L99.0767 86.5859L97.9419 87.5669C108.47 99.7457 124.436 107.5 142.291 107.5L142.291 106ZM99.0767 86.5859L97.9419 85.605C87.9801 97.1291 72.84 104.5 55.8628 104.5L55.8628 106L55.8628 107.5C73.7173 107.5 89.6837 99.7457 100.211 87.5669L99.0767 86.5859ZM55.8628 106L55.8628 104.5C25.764 104.5 1.50049 81.3693 1.50049 53L0.000485965 53L-1.49951 53C-1.49951 83.1729 24.2578 107.5 55.8628 107.5L55.8628 106ZM0.000485965 53L1.50049 53C1.50049 24.6307 25.764 1.49999 55.8628 1.49999L55.8628 -1.37755e-05L55.8628 -1.50001C24.2578 -1.50001 -1.4995 22.8271 -1.49951 53L0.000485965 53ZM55.8628 -1.37755e-05L55.8628 1.49999C72.8397 1.5001 87.9802 8.87027 97.9419 20.394L99.0767 19.4131L100.211 18.4321C89.6837 6.25358 73.717 -1.49989 55.8628 -1.50001L55.8628 -1.37755e-05ZM99.0767 19.4131L100.211 20.394C110.173 8.87027 125.314 1.50002 142.291 1.49999L142.291 -9.99761e-06L142.291 -1.50001C124.436 -1.49998 108.47 6.2536 97.9419 18.4321L99.0767 19.4131ZM142.291 -9.99761e-06L142.291 1.49999C159.268 1.49999 174.409 8.86945 184.371 20.3931L185.505 19.4121L186.64 18.4311C176.112 6.25265 160.145 -1.50001 142.291 -1.50001L142.291 -9.99761e-06ZM185.505 19.4121L186.64 20.3931C196.602 8.86979 211.743 1.49999 228.719 1.49999L228.719 -6.21969e-06L228.719 -1.50001C210.865 -1.50001 194.898 6.25306 184.371 18.4311L185.505 19.4121ZM228.719 -6.21969e-06L228.719 1.49999C245.696 1.50013 260.837 8.86965 270.798 20.3931L271.933 19.4121L273.068 18.4311C262.54 6.25289 246.573 -1.49986 228.719 -1.50001L228.719 -6.21969e-06ZM271.933 19.4121L273.068 20.3931C283.03 8.86966 298.17 1.50001 315.147 1.5L315.147 -2.44182e-06L315.147 -1.5C297.293 -1.49999 281.326 6.25292 270.798 18.4311L271.933 19.4121ZM315.147 -2.44182e-06L315.147 1.5C345.246 1.5 369.509 24.6307 369.509 53L371.009 53L372.509 53C372.509 22.8271 346.752 -1.5 315.147 -1.5L315.147 -2.44182e-06Z" fill="black" mask="url(#path-1-inside-1_403_596)"/>
</svg>
