<svg width="120" height="125" viewBox="0 0 120 125" fill="none" xmlns="http://www.w3.org/2000/svg">
<g clip-path="url(#clip0_403_577)">
<path d="M119.058 62.806C68.3431 67.7124 64.5571 71.6881 59.8924 124.977C55.2204 71.6881 51.438 67.7124 0.722656 62.806C51.438 57.8996 55.2204 53.9239 59.8887 0.63501C64.5571 53.9239 68.3395 57.8996 119.055 62.806H119.058Z" fill="white"/>
<path d="M119.058 62.806C68.3431 67.7124 64.5571 71.6881 59.8924 124.977C55.2204 71.6881 51.438 67.7124 0.722656 62.806C51.438 57.8996 55.2204 53.9239 59.8887 0.63501C64.5571 53.9239 68.3395 57.8996 119.055 62.806H119.058Z" stroke="black" stroke-width="0.829448" stroke-miterlimit="10"/>
</g>
<defs>
<clipPath id="clip0_403_577">
<rect width="118.379" height="124.388" fill="white" transform="translate(0.700684 0.612061)"/>
</clipPath>
</defs>
</svg>
